# xmcd
#
# Track frame offsets: 
#        150
#        21967
#        43663
#        62177
#        85632
#        107858
#        130849
#        159534
#        185047
#        209682
#        232912
#        255016
#        281152
#        315293
#        331764
#
# Disc length: 4732 seconds
#
# Revision: 0
# Processed by: cddbd v1.5.2PL0 Copyright (c) Steve Scherf et al.
# Submitted via: ExactAudioCopyFreeDBPlugin 1.0
#
DISCID=ca127a0f
DTITLE=Rev. Milton Brunson - The Ultimate Collection
DYEAR=1900
DGENRE=Gospel
TTITLE0=It's Gonna Rain
TTITLE1=If I Be Lifted
TTITLE2=The Holy Ghost
TTITLE3=I Really Love You Lord
TTITLE4=Safe In His Arms
TTITLE5=My Mind is Made Up (Remix)
TTITLE6=I'm Available To You
TTITLE7=I Tried Him and I Know Him
TTITLE8=Shout
TTITLE9=He's Still Good
TTITLE10=Open Our Eyes
TTITLE11=I'm Free
TTITLE12=Old Ship Of Zion
TTITLE13=Thank You
TTITLE14=Rise Up And Walk
EXTD=
EXTT0=
EXTT1=
EXTT2=
EXTT3=
EXTT4=
EXTT5=
EXTT6=
EXTT7=
EXTT8=
EXTT9=
EXTT10=
EXTT11=
EXTT12=
EXTT13=
EXTT14=
PLAYORDER=
